<svg id="Layer_1" data-name="Layer 1" xmlns="http://www.w3.org/2000/svg" viewBox="0 0 1277.33 1073.31"><polygon points="2 4.55 2 156.58 158.16 3.25 2 4.55" fill="#1c01f0"/><path d="M256.93,3.25l6.68,348.24L381.73,202.71Z" fill="#be0012"/><polygon points="2 156.58 80.4 79.7 184.86 234.54 2 270.93 2 156.58" fill="#be0012"/><polygon points="158.16 3.25 256.94 3.25 80.75 79.91 158.16 3.25" fill="#96e1ff"/><polygon points="184.19 233.89 256.27 2.6 80.08 79.26 184.19 233.89" fill="#ffc700"/><polygon points="262.94 350.84 184.19 233.89 256.27 2.6 262.94 350.84" fill="#1c01f0"/><polygon points="2.67 270.28 1.33 449.59 64.07 337.85 2.67 270.28" fill="#96e1ff"/><polygon points="184.19 233.89 64.07 337.85 2.67 270.28 184.19 233.89" fill="#07d824"/><polygon points="262.94 350.84 64.07 337.85 184.19 233.89 262.94 350.84" fill="#96e1ff"/><polygon points="475.16 352.14 536.56 449.59 384.4 447 475.16 352.14" fill="#be0012"/><polygon points="262.94 350.84 384.4 447 475.16 352.14 262.94 350.84" fill="#96e1ff"/><polygon points="1.33 449.59 262.94 350.84 64.07 337.85 1.33 449.59" fill="#9a2bbf"/><polygon points="384.4 447 110.85 408.12 262.94 350.84 384.4 447" fill="#07d824"/><polygon points="1.33 449.59 124.13 545.75 110.78 408.01 1.33 449.59" fill="#1c01f0"/><polygon points="124.13 545.75 384.4 447 110.78 408.01 124.13 545.75" fill="#ffc700"/><polygon points="0 674.39 124.13 545.75 1.33 449.59 0 674.39" fill="#be0012"/><polygon points="288.3 673.09 0 674.39 124.13 545.75 288.3 673.09" fill="#07d824"/><polygon points="288.3 673.09 288.49 523.07 288.54 482.1 124.13 545.75 288.3 673.09" fill="#be0012"/><polygon points="365.71 647.1 384.4 447 288.3 482.08 288.3 523.66 365.71 647.1" fill="#1c01f0"/><polygon points="536.56 449.59 365.71 647.1 384.4 447 536.56 449.59" fill="#ffc700"/><path d="M0,674.39l288.3,126V673.09Z" fill="#1c01f0"/><polygon points="0 1073.31 288.3 1073.31 156.16 960.26 0 1073.31" fill="#be0012"/><polygon points="0 674.39 2.67 874.5 143.45 736.87 0 674.39" fill="#be0012"/><polygon points="288.3 800.43 160.59 833.55 2.67 874.5 142.82 736.76 288.3 800.43" fill="#ffc700"/><path d="M156.16,961.56,288.3,800.43,138,837.21Z" fill="#be0012"/><polygon points="0 1073.31 2.67 874.5 6.11 876.45 156.16 961.56 0 1073.31" fill="#1c01f0"/><polygon points="137.48 836.82 156.16 961.56 2.67 874.5 137.48 836.82" fill="#07d824"/><polygon points="288.3 800.43 288.3 1073.31 156.16 961.56 288.3 800.43" fill="#9a2bbf"/><polygon points="458.51 540.36 642 619.82 536.56 449.59 458.51 540.36" fill="#1c01f0"/><polygon points="365.71 647.1 487.12 613.08 570.11 589.83 459.15 540.55 365.71 647.1" fill="#07d824"/><polygon points="569.93 964.16 643.34 877.1 707.4 964.16 569.93 964.16" fill="#be0012"/><polygon points="365.71 647.1 429.78 747.16 484.19 613.22 365.71 647.1" fill="#be0012"/><polygon points="642 619.82 569.93 589.93 484.5 613.32 642 619.82" fill="#96e1ff"/><polygon points="429.78 747.16 642 619.82 484.5 613.32 429.78 747.16" fill="#1c01f0"/><polygon points="643.34 877.1 564.61 829.2 429.78 747.16 569.93 964.16 643.34 877.1" fill="#1c01f0"/><polygon points="568.89 662.44 429.78 747.16 574.88 838.5 568.89 662.44" fill="#ffc700"/><polygon points="643.34 877.1 823.53 771.85 707.4 964.16 643.34 877.1" fill="#07d824"/><polygon points="575.27 838.12 823.53 771.85 643.34 877.1 575.27 838.12" fill="#96e1ff"/><polygon points="642 619.82 626.17 671.62 575.27 838.12 568.59 662.7 642 619.82" fill="#be0012"/><polygon points="723.19 798.02 575.27 838.12 613.32 710.2 723.19 798.02" fill="#9a2bbf"/><polygon points="642 619.82 919.63 615.92 613.97 710.77 642 619.82" fill="#9a2bbf"/><polygon points="723.42 797.84 770.61 659.53 613.97 710.77 723.42 797.84" fill="#ffc700"/><polygon points="823.53 771.85 770.14 660.1 723.42 797.84 823.53 771.85" fill="#be0012"/><polygon points="919.63 615.92 823.53 771.85 770.14 660.1 919.63 615.92" fill="#1c01f0"/><polygon points="743.44 452.19 819.18 616.75 642 619.82 743.44 452.19" fill="#07d824"/><polygon points="986.36 506.77 819.52 617.22 919.63 615.92 986.36 506.77" fill="#3a99ce" stroke="#000" stroke-miterlimit="10"/><polygon points="743.44 452.19 986.36 506.77 819.52 617.22 743.44 452.19" fill="#96e1ff"/><polygon points="1021.07 5.2 1274.66 202.71 1273.33 0 1021.07 5.2" fill="#be0012"/><path d="M1274.66,201.41,1091.81,436.6,1276,545.75Q1275.32,373.58,1274.66,201.41Z" fill="#9a2bbf"/><polygon points="1021.07 5.2 1011.72 235.19 876.91 235.19 1021.07 5.2" fill="#1c01f0"/><path d="M1091.81,436.6l-78.75-204,261.6-29.88Z" fill="#1c01f0"/><polygon points="1011.72 235.19 1274.66 202.71 1021.07 5.2 1011.72 235.19" fill="#07d824"/><polygon points="876.91 235.19 986.36 506.77 743.44 452.19 876.91 235.19" fill="#07d824"/><polygon points="1011.72 235.19 986.36 506.77 876.91 235.19 1011.72 235.19" fill="#ffc700"/><polygon points="1091.81 436.6 986.36 506.77 1011.72 235.19 1091.81 436.6" fill="#be0012"/><polygon points="1276 545.75 989.03 708.18 1091.81 436.6 1276 545.75" fill="#07d824"/><polygon points="986.36 506.77 989.03 708.18 1091.81 436.6 986.36 506.77" fill="#96e1ff"/><polygon points="1118.8 633.59 1277.33 843.31 1276 545.75 1118.8 633.59" fill="#1c01f0"/><polygon points="989.03 708.18 1277.33 843.31 1118.5 634.11 989.03 708.18" fill="#ffc700"/><polygon points="991.7 1070.71 1276 973.25 1277.33 1072.01 991.7 1070.71" fill="#07d824"/><polygon points="1111.25 768.27 991.7 962.86 989.03 708.18 1111.25 768.27" fill="#1c01f0"/><polygon points="1277.33 843.31 991.7 962.86 1111.83 767.95 1277.33 843.31" fill="#be0012"/><polygon points="1276 973.25 1093.64 917.64 1277.33 843.31 1276 973.25" fill="#1c01f0"/><polygon points="991.7 1070.71 1093.14 917.38 1276 973.25 991.7 1070.71" fill="#9a2bbf"/><polygon points="991.7 962.86 991.7 1070.71 1093.14 917.38 991.7 962.86" fill="#07d824"/><polygon points="382.4 203.36 475.83 352.79 263.61 351.49 382.4 203.36" fill="#1c01f0"/></svg>